<svg xmlns="http://www.w3.org/2000/svg" viewBox="0 0 800 600" role="img" aria-label="Schematic illustration of a porous sintered metal structure">
  <defs>
    <linearGradient id="gg1" x1="0" y1="0" x2="1" y2="1">
      <stop offset="0" stop-color="#c2ccd4"/>
      <stop offset="1" stop-color="#8496a4"/>
    </linearGradient>
    <linearGradient id="gg2" x1="0" y1="0" x2="1" y2="1">
      <stop offset="0" stop-color="#a9b6c0"/>
      <stop offset="1" stop-color="#687c8c"/>
    </linearGradient>
    <pattern id="powder" width="90" height="90" patternUnits="userSpaceOnUse">
      <rect width="90" height="90" fill="#4c5d6a"/>
      <circle cx="22" cy="24" r="16" fill="url(#gg1)"/>
      <circle cx="60" cy="18" r="12" fill="url(#gg2)"/>
      <circle cx="48" cy="52" r="18" fill="url(#gg1)"/>
      <circle cx="12" cy="62" r="13" fill="url(#gg2)"/>
      <circle cx="78" cy="70" r="14" fill="url(#gg1)"/>
      <circle cx="20" cy="20" r="3.2" fill="#26343f"/>
      <circle cx="62" cy="16" r="2.4" fill="#26343f"/>
      <circle cx="50" cy="55" r="3.8" fill="#26343f"/>
      <circle cx="14" cy="64" r="2.6" fill="#26343f"/>
      <circle cx="80" cy="72" r="3" fill="#26343f"/>
      <circle cx="70" cy="38" r="1.8" fill="#1d2a34"/>
      <circle cx="34" cy="70" r="1.6" fill="#1d2a34"/>
      <circle cx="36" cy="40" r="1.5" fill="#1d2a34"/>
    </pattern>
    <linearGradient id="fade" x1="0" y1="0" x2="0" y2="1">
      <stop offset="0.55" stop-color="#33454f" stop-opacity="0"/>
      <stop offset="1" stop-color="#22323c" stop-opacity="0.55"/>
    </linearGradient>
  </defs>
  <rect width="800" height="600" fill="url(#powder)"/>
  <rect width="800" height="600" fill="url(#fade)"/>
  <rect x="0.5" y="0.5" width="799" height="599" fill="none" stroke="#22323c" stroke-opacity="0.4"/>
</svg>
